<!-- Generator: Adobe Illustrator 25.2.0, SVG Export Plug-In  -->
<svg version="1.1" xmlns="http://www.w3.org/2000/svg" xmlns:xlink="http://www.w3.org/1999/xlink" x="0px" y="0px"
	 width="155.47px" height="145.5px" viewBox="0 0 155.47 145.5" style="overflow:visible;enable-background:new 0 0 155.47 145.5;"
	 xml:space="preserve">
<style type="text/css">
	.st0{fill:#FFFFFF;}
</style>
<defs>
</defs>
<g>
	<path class="st0" d="M0.23,22.93l1.94-0.23l0.59-0.59V4.76L2.3,4.3L0.2,4.13V2.53h7.55v0.89l10.04,15.58V4.95l-0.59-0.62l-2-0.26
		V2.53h7.48v1.54l-1.94,0.26l-0.56,0.62v19.59H16.5L5.15,6.92v15.19l0.52,0.59l2.03,0.23v1.61H0.23V22.93z"/>
	<path class="st0" d="M28.05,28.94c0.48-0.42,0.92-0.94,1.31-1.56c0.39-0.62,0.81-1.44,1.25-2.44L24.77,10.3l-1.97-0.26V8.56h8.33
		v1.48l-1.67,0.16l-0.33,0.46l3.54,9.28l3.58-9.25l-0.3-0.49l-1.74-0.16V8.56h6.3v1.48l-1.77,0.26l-6.33,15.39
		c-0.77,1.86-1.7,3.33-2.79,4.41c-1.09,1.08-2.2,1.62-3.31,1.62c-0.39,0-0.76-0.07-1.1-0.2c-0.34-0.13-0.63-0.31-0.89-0.52
		c-0.25-0.22-0.45-0.48-0.61-0.79c-0.15-0.31-0.23-0.62-0.23-0.95c0-0.87,0.57-1.64,1.71-2.3L28.05,28.94z M33.1,0h4.07l-5.05,6.23
		h-2.2L33.1,0z"/>
	<path class="st0" d="M51.18,23.65c-1.14,0.39-2.07,0.67-2.8,0.82c-0.73,0.15-1.47,0.23-2.21,0.23c-0.77,0-1.45-0.13-2.05-0.38
		c-0.6-0.25-1.06-0.61-1.36-1.07c-0.18-0.28-0.3-0.61-0.36-0.97c-0.07-0.36-0.1-0.96-0.1-1.79v-9.55h-2.13V9.71l2.43-1.38l1.71-3.41
		h2.03v4.07h4.86v1.97h-4.86v8.17c0,0.61,0.04,1.12,0.13,1.52c0.09,0.41,0.23,0.73,0.44,0.98c0.21,0.25,0.49,0.43,0.85,0.52
		c0.36,0.1,0.8,0.15,1.33,0.15c0.79,0,1.49-0.08,2.1-0.23V23.65z"/>
	<path class="st0" d="M62.63,23.65c-1.14,0.39-2.07,0.67-2.8,0.82c-0.73,0.15-1.47,0.23-2.21,0.23c-0.77,0-1.45-0.13-2.05-0.38
		c-0.6-0.25-1.06-0.61-1.36-1.07c-0.18-0.28-0.3-0.61-0.36-0.97c-0.07-0.36-0.1-0.96-0.1-1.79v-9.55H51.6V9.71l2.43-1.38l1.71-3.41
		h2.03v4.07h4.86v1.97h-4.86v8.17c0,0.61,0.04,1.12,0.13,1.52c0.09,0.41,0.23,0.73,0.44,0.98c0.21,0.25,0.49,0.43,0.85,0.52
		c0.36,0.1,0.8,0.15,1.33,0.15c0.79,0,1.49-0.08,2.1-0.23V23.65z"/>
	<path class="st0" d="M75.39,22.73c-1.14,0.74-2.14,1.28-3.02,1.61c-0.88,0.33-1.74,0.49-2.59,0.49c-2.91,0-4.36-1.87-4.36-5.61
		v-8.2h-2.13V9.74l4.59-1.57h1.57v10.17c0,1.29,0.24,2.22,0.72,2.8c0.48,0.58,1.25,0.87,2.3,0.87c0.44,0,0.87-0.04,1.31-0.11
		c0.44-0.08,0.97-0.21,1.61-0.41V11.02h-2.13V9.74l4.66-1.57h1.51v14.27l0.46,0.46l1.67,0.16v1.48h-6.17V22.73z"/>
	<path class="st0" d="M89.99,30.21l1.8-0.16l0.43-0.49V3.15h-2.36V1.87l4.95-1.57h1.44v9.94c1.13-0.76,2.09-1.3,2.88-1.61
		c0.79-0.31,1.56-0.46,2.32-0.46c0.87,0,1.68,0.2,2.44,0.59c0.75,0.39,1.4,0.94,1.95,1.62c0.55,0.69,0.97,1.51,1.28,2.46
		c0.31,0.95,0.46,1.98,0.46,3.1c0,1.31-0.2,2.51-0.61,3.58c-0.4,1.07-0.98,1.98-1.73,2.72c-0.75,0.74-1.66,1.32-2.71,1.72
		c-1.06,0.41-2.24,0.61-3.55,0.61c-0.37,0-0.77-0.02-1.19-0.05c-0.43-0.03-0.93-0.08-1.52-0.15v5.25l0.49,0.46l2.07,0.13v1.48h-8.82
		V30.21z M96.25,22.57c0.74,0.15,1.41,0.23,2,0.23c1.53,0,2.74-0.56,3.63-1.67c0.89-1.11,1.33-2.66,1.33-4.63
		c0-1.71-0.38-3.05-1.15-4.04c-0.77-0.98-1.82-1.48-3.15-1.48c-0.39,0-0.78,0.04-1.15,0.13c-0.37,0.09-0.88,0.25-1.51,0.49V22.57z"
		/>
	<path class="st0" d="M124.43,22.92c-2.26,1.27-4.52,1.91-6.77,1.91c-1.23,0-2.35-0.2-3.35-0.59c-1.01-0.39-1.87-0.95-2.58-1.66
		c-0.71-0.71-1.26-1.57-1.64-2.57c-0.38-1.01-0.58-2.13-0.58-3.38c0-1.25,0.2-2.39,0.59-3.43c0.39-1.04,0.95-1.93,1.68-2.67
		c0.72-0.74,1.58-1.32,2.58-1.74c1-0.41,2.1-0.62,3.3-0.62c1.53,0,2.83,0.34,3.9,1.02c1.06,0.68,1.85,1.66,2.35,2.95
		c0.22,0.57,0.37,1.14,0.44,1.71c0.08,0.57,0.12,1.34,0.12,2.33H113.7c0.04,1.98,0.51,3.49,1.41,4.54c0.9,1.04,2.2,1.57,3.92,1.57
		c0.88,0,1.73-0.14,2.55-0.41c0.82-0.27,1.77-0.73,2.85-1.36V22.92z M120.13,14.4c0-0.85-0.05-1.51-0.15-1.99
		c-0.1-0.48-0.27-0.9-0.51-1.27c-0.24-0.39-0.56-0.69-0.95-0.9c-0.39-0.21-0.81-0.31-1.25-0.31c-1.01,0-1.8,0.39-2.39,1.17
		c-0.59,0.78-0.93,1.88-1.02,3.29H120.13z M118.82,0h4.07l-5.05,6.23h-2.2L118.82,0z"/>
	<path class="st0" d="M126.14,23.06l1.74-0.16l0.46-0.46V11.12h-2.36V9.81l4.82-1.54h1.57l-0.13,3.35c0.57-0.63,1.16-1.21,1.77-1.72
		c0.61-0.51,1.3-1.05,2.07-1.62c0.15-0.04,0.27-0.07,0.36-0.07c0.09,0,0.2,0,0.33,0c0.39,0,0.74,0.03,1.03,0.1
		c0.3,0.07,0.68,0.22,1.16,0.46l-0.43,4.53h-1.71c-0.55-0.81-1.21-1.21-2-1.21c-0.33,0-0.68,0.07-1.05,0.21
		c-0.37,0.14-0.84,0.39-1.41,0.74v9.42l0.49,0.46l2.33,0.16v1.48h-9.05V23.06z"/>
	<path class="st0" d="M0.43,63.25l1.64-0.16l0.46-0.46V51.15H0.39V49.9l2.13-0.98c0.02-1.51,0.26-2.8,0.71-3.87
		c0.45-1.07,1.14-2.02,2.08-2.85c1.4-1.22,2.91-1.84,4.53-1.84c0.92,0,1.66,0.22,2.23,0.66c0.57,0.44,0.85,1.01,0.85,1.71
		c0,0.48-0.15,0.88-0.44,1.2c-0.3,0.32-0.78,0.61-1.46,0.87l-3.18-2.82c-0.46,0.57-0.79,1.25-0.98,2.05c-0.2,0.8-0.3,1.86-0.3,3.2
		v1.97h4.4v1.97h-4.4v11.48l0.52,0.46l2.2,0.16v1.48H0.43V63.25z"/>
	<path class="st0" d="M13.58,70.27c0.2-0.31,0.37-0.65,0.51-1.03c0.14-0.38,0.25-0.83,0.33-1.34c0.08-0.51,0.14-1.11,0.18-1.77
		c0.04-0.67,0.07-1.45,0.07-2.35V51.31H12.3v-1.28l4.99-1.57h1.41v13.06c0,0.96-0.03,1.82-0.1,2.58c-0.07,0.75-0.16,1.43-0.3,2.02
		c-0.13,0.59-0.31,1.12-0.53,1.59c-0.22,0.47-0.48,0.91-0.79,1.33c-0.63,0.85-1.44,1.52-2.41,2c-0.97,0.48-2.02,0.72-3.13,0.72
		c-0.9,0-1.62-0.21-2.17-0.64c-0.55-0.43-0.82-0.98-0.82-1.66c0-1.14,0.63-1.86,1.9-2.16L13.58,70.27z M16.63,41.01
		c0.68,0,1.25,0.24,1.71,0.71c0.46,0.47,0.69,1.05,0.69,1.75c0,0.68-0.24,1.25-0.71,1.71c-0.47,0.46-1.06,0.69-1.76,0.69
		c-0.7,0-1.27-0.23-1.72-0.69c-0.45-0.46-0.67-1.04-0.67-1.74c0-0.72,0.23-1.31,0.69-1.75C15.32,41.23,15.91,41.01,16.63,41.01z"/>
	<path class="st0" d="M30.38,48.36c1.22,0,2.33,0.2,3.33,0.61c0.99,0.4,1.85,0.97,2.56,1.71c0.71,0.73,1.26,1.61,1.66,2.64
		c0.39,1.03,0.59,2.16,0.59,3.41c0,1.25-0.2,2.38-0.61,3.41c-0.4,1.03-0.97,1.9-1.71,2.62c-0.73,0.72-1.62,1.28-2.67,1.67
		c-1.05,0.39-2.21,0.59-3.48,0.59c-1.25,0-2.38-0.2-3.4-0.59c-1.02-0.39-1.89-0.95-2.61-1.67c-0.72-0.72-1.28-1.59-1.67-2.61
		c-0.39-1.02-0.59-2.15-0.59-3.4c0-1.27,0.2-2.42,0.61-3.46c0.4-1.04,0.98-1.92,1.72-2.66c0.74-0.73,1.65-1.3,2.71-1.69
		C27.88,48.55,29.07,48.36,30.38,48.36z M26.8,41.66c0.57,0,1.05,0.21,1.46,0.62c0.4,0.42,0.61,0.92,0.61,1.51
		c0,0.59-0.2,1.09-0.61,1.49c-0.4,0.41-0.9,0.61-1.49,0.61s-1.09-0.21-1.51-0.62c-0.42-0.42-0.62-0.91-0.62-1.48
		c0-0.59,0.21-1.09,0.62-1.51C25.68,41.87,26.19,41.66,26.8,41.66z M30.12,50.13c-1.2,0-2.14,0.57-2.8,1.72
		c-0.67,1.15-1,2.75-1,4.81c0,2.1,0.33,3.72,1,4.87c0.67,1.15,1.6,1.72,2.8,1.72c1.25,0,2.2-0.56,2.87-1.69c0.67-1.13,1-2.73,1-4.81
		c0-2.12-0.33-3.76-1-4.9C32.32,50.7,31.36,50.13,30.12,50.13z M33.56,41.66c0.57,0,1.06,0.21,1.48,0.64
		c0.42,0.43,0.62,0.92,0.62,1.49c0,0.57-0.21,1.06-0.62,1.48c-0.42,0.42-0.92,0.62-1.51,0.62c-0.59,0-1.09-0.2-1.49-0.61
		c-0.4-0.4-0.61-0.9-0.61-1.49c0-0.61,0.2-1.12,0.61-1.53C32.44,41.87,32.95,41.66,33.56,41.66z"/>
	<path class="st0" d="M40.22,63.25l1.9-0.16l0.46-0.46V43.34h-2.36v-1.28l4.95-1.57h1.44v22.14l0.49,0.46l1.87,0.16v1.48h-8.76
		V63.25z"/>
	<path class="st0" d="M51.77,43.3H49.4v-1.28l4.82-1.54h1.57v9.38c1.02-0.55,1.89-0.93,2.6-1.16c0.71-0.23,1.42-0.34,2.14-0.34
		c0.94,0,1.8,0.19,2.6,0.56c0.8,0.37,1.48,0.89,2.04,1.54c0.57,0.66,1.01,1.44,1.32,2.36c0.32,0.92,0.47,1.94,0.47,3.05
		c0,1.07-0.15,2.07-0.46,3s-0.74,1.77-1.29,2.51c-0.56,0.74-1.24,1.37-2.04,1.89c-0.81,0.51-1.7,0.89-2.68,1.13
		c-0.5,0.11-1.16,0.2-1.98,0.26c-0.82,0.07-1.67,0.1-2.57,0.1c-0.04,0-0.11,0-0.2,0c-0.09,0-0.27,0-0.54,0
		c-0.27,0-0.68-0.01-1.23-0.02c-0.55-0.01-1.29-0.03-2.23-0.05V43.3z M55.8,62.99l1.08,0.03c3.83,0,5.74-2.06,5.74-6.18
		c0-1.89-0.4-3.34-1.2-4.37c-0.8-1.03-1.92-1.55-3.36-1.55c-0.37,0-0.73,0.02-1.08,0.07c-0.35,0.04-0.74,0.12-1.18,0.23V62.99z"/>
	<path class="st0" d="M68.66,63.25l1.74-0.16l0.46-0.46V51.31H68.5V50l4.82-1.54h1.57l-0.13,3.35c0.57-0.63,1.16-1.21,1.77-1.72
		c0.61-0.51,1.3-1.05,2.07-1.62c0.15-0.04,0.27-0.07,0.36-0.07c0.09,0,0.2,0,0.33,0c0.39,0,0.74,0.03,1.03,0.1
		c0.3,0.07,0.68,0.22,1.16,0.46l-0.43,4.53h-1.71c-0.55-0.81-1.21-1.21-2-1.21c-0.33,0-0.68,0.07-1.05,0.21
		c-0.37,0.14-0.84,0.39-1.41,0.74v9.42l0.49,0.46l2.33,0.16v1.48h-9.05V63.25z"/>
	<path class="st0" d="M97.46,63.11c-2.26,1.27-4.52,1.91-6.77,1.91c-1.23,0-2.35-0.2-3.35-0.59c-1.01-0.39-1.87-0.95-2.58-1.66
		c-0.71-0.71-1.26-1.57-1.64-2.58c-0.38-1.01-0.58-2.13-0.58-3.38c0-1.25,0.2-2.39,0.59-3.43c0.39-1.04,0.95-1.93,1.68-2.67
		c0.72-0.74,1.58-1.32,2.58-1.74c1-0.41,2.1-0.62,3.3-0.62c1.53,0,2.83,0.34,3.9,1.02c1.06,0.68,1.85,1.66,2.35,2.95
		c0.22,0.57,0.37,1.14,0.44,1.71c0.08,0.57,0.12,1.34,0.12,2.33H86.74c0.04,1.98,0.51,3.49,1.41,4.54c0.9,1.04,2.2,1.57,3.92,1.57
		c0.88,0,1.73-0.14,2.55-0.41c0.82-0.27,1.77-0.73,2.85-1.36V63.11z M93.17,54.59c0-0.85-0.05-1.51-0.15-1.99
		c-0.1-0.48-0.27-0.9-0.51-1.27c-0.24-0.39-0.56-0.69-0.95-0.9c-0.39-0.21-0.81-0.31-1.25-0.31c-1.01,0-1.8,0.39-2.39,1.17
		c-0.59,0.78-0.93,1.88-1.02,3.29H93.17z"/>
	<path class="st0" d="M103.3,69.12c0.48-0.42,0.92-0.94,1.31-1.56c0.39-0.62,0.81-1.44,1.25-2.44l-5.84-14.63l-1.97-0.26v-1.48h8.33
		v1.48l-1.67,0.16l-0.33,0.46l3.54,9.28l3.58-9.25l-0.3-0.49l-1.74-0.16v-1.48h6.3v1.48L114,50.49l-6.33,15.39
		c-0.77,1.86-1.7,3.33-2.79,4.41c-1.09,1.08-2.2,1.62-3.31,1.62c-0.39,0-0.76-0.07-1.1-0.2c-0.34-0.13-0.63-0.31-0.89-0.52
		c-0.25-0.22-0.45-0.48-0.61-0.79c-0.15-0.31-0.23-0.62-0.23-0.95c0-0.87,0.57-1.64,1.71-2.3L103.3,69.12z"/>
	<path class="st0" d="M126.43,63.84c-1.14,0.39-2.07,0.67-2.8,0.82c-0.73,0.15-1.47,0.23-2.21,0.23c-0.77,0-1.45-0.13-2.05-0.38
		c-0.6-0.25-1.06-0.61-1.36-1.07c-0.18-0.28-0.3-0.61-0.36-0.97c-0.07-0.36-0.1-0.96-0.1-1.79v-9.55h-2.13V49.9l2.43-1.38l1.71-3.41
		h2.03v4.07h4.86v1.97h-4.86v8.17c0,0.61,0.04,1.12,0.13,1.52c0.09,0.41,0.23,0.73,0.44,0.98c0.21,0.25,0.49,0.43,0.85,0.52
		c0.36,0.1,0.8,0.15,1.33,0.15c0.79,0,1.49-0.08,2.1-0.23V63.84z"/>
	<path class="st0" d="M137.88,63.84c-1.14,0.39-2.07,0.67-2.8,0.82c-0.73,0.15-1.47,0.23-2.21,0.23c-0.77,0-1.45-0.13-2.05-0.38
		c-0.6-0.25-1.06-0.61-1.36-1.07c-0.18-0.28-0.3-0.61-0.36-0.97c-0.07-0.36-0.1-0.96-0.1-1.79v-9.55h-2.13V49.9l2.43-1.38l1.71-3.41
		h2.03v4.07h4.86v1.97h-4.86v8.17c0,0.61,0.04,1.12,0.13,1.52c0.09,0.41,0.23,0.73,0.44,0.98c0.21,0.25,0.49,0.43,0.85,0.52
		c0.36,0.1,0.8,0.15,1.33,0.15c0.79,0,1.49-0.08,2.1-0.23V63.84z"/>
	<path class="st0" d="M149.3,62.86c-1.2,0.79-2.23,1.35-3.08,1.67c-0.85,0.33-1.72,0.49-2.59,0.49c-1.27,0-2.3-0.4-3.1-1.2
		c-0.8-0.8-1.2-1.84-1.2-3.13c0-2.19,1.29-3.72,3.87-4.59c0.77-0.24,1.68-0.51,2.76-0.8c1.07-0.3,2.2-0.56,3.38-0.8v-0.98
		c0-1.18-0.25-2.04-0.74-2.58c-0.49-0.54-1.3-0.8-2.41-0.8c-0.55,0-1.06,0.05-1.54,0.16v3.08h-3.02c-1.01,0-1.51-0.39-1.51-1.18
		c0-0.55,0.19-1.05,0.56-1.51c0.37-0.46,0.89-0.86,1.54-1.21c0.66-0.35,1.43-0.62,2.33-0.82c0.9-0.2,1.87-0.3,2.92-0.3
		c1.07,0,1.98,0.1,2.72,0.31c0.74,0.21,1.35,0.55,1.82,1.02c0.47,0.47,0.81,1.07,1.02,1.8c0.21,0.73,0.31,1.62,0.31,2.67v8.46
		l0.43,0.46l1.71,0.16v1.48h-5.74L149.3,62.86z M149.3,56.16c-1.08,0.24-1.97,0.48-2.69,0.72c-0.72,0.24-1.29,0.51-1.72,0.82
		c-0.43,0.31-0.74,0.64-0.92,1.02c-0.19,0.37-0.28,0.81-0.28,1.31c0,0.74,0.21,1.33,0.64,1.77c0.43,0.44,1.01,0.66,1.73,0.66
		c0.46,0,0.92-0.07,1.39-0.2c0.46-0.13,1.08-0.38,1.85-0.75V56.16z"/>
	<path class="st0" d="M0.13,110.59l1.8-0.16l0.43-0.49V83.52H0v-1.28l4.95-1.57H6.4v9.94c1.13-0.76,2.09-1.3,2.88-1.61
		c0.79-0.31,1.56-0.46,2.32-0.46c0.87,0,1.68,0.2,2.44,0.59c0.75,0.39,1.4,0.94,1.95,1.62s0.97,1.51,1.28,2.46s0.46,1.98,0.46,3.1
		c0,1.31-0.2,2.51-0.61,3.58c-0.4,1.07-0.98,1.98-1.73,2.72c-0.75,0.74-1.66,1.32-2.71,1.72c-1.06,0.41-2.24,0.61-3.55,0.61
		c-0.37,0-0.77-0.02-1.19-0.05c-0.43-0.03-0.93-0.08-1.52-0.15V110l0.49,0.46l2.07,0.13v1.48H0.13V110.59z M6.4,102.95
		c0.74,0.15,1.41,0.23,2,0.23c1.53,0,2.74-0.56,3.63-1.67c0.89-1.11,1.33-2.66,1.33-4.63c0-1.71-0.38-3.05-1.15-4.04
		c-0.77-0.98-1.82-1.48-3.15-1.48c-0.39,0-0.78,0.04-1.15,0.13c-0.37,0.09-0.88,0.25-1.51,0.49V102.95z"/>
	<path class="st0" d="M34.58,103.3c-2.26,1.27-4.52,1.91-6.77,1.91c-1.23,0-2.35-0.2-3.35-0.59c-1.01-0.39-1.87-0.95-2.58-1.66
		c-0.71-0.71-1.26-1.57-1.64-2.57c-0.38-1.01-0.58-2.13-0.58-3.38c0-1.25,0.2-2.39,0.59-3.43c0.39-1.04,0.95-1.93,1.68-2.67
		c0.72-0.74,1.58-1.32,2.58-1.74c1-0.41,2.1-0.62,3.3-0.62c1.53,0,2.83,0.34,3.9,1.02c1.06,0.68,1.85,1.66,2.35,2.95
		c0.22,0.57,0.37,1.14,0.44,1.71s0.12,1.34,0.12,2.33H23.85c0.04,1.98,0.52,3.49,1.41,4.54c0.9,1.04,2.2,1.57,3.92,1.57
		c0.88,0,1.73-0.14,2.55-0.41c0.82-0.27,1.77-0.73,2.85-1.36V103.3z M30.28,94.78c0-0.85-0.05-1.51-0.15-1.99
		c-0.1-0.48-0.27-0.9-0.51-1.27c-0.24-0.39-0.56-0.69-0.95-0.9c-0.39-0.21-0.81-0.31-1.25-0.31c-1.01,0-1.8,0.39-2.39,1.17
		c-0.59,0.78-0.93,1.88-1.02,3.29H30.28z"/>
	<path class="st0" d="M36.35,103.44l1.67-0.16l0.46-0.46V83.49h-2.36v-1.28l5.02-1.54h1.38v15.75h0.72l4.69-5.51l-0.23-0.36
		l-1.44-0.16v-1.44h6.69v1.44l-2.13,0.26l-3.74,4.2l5.22,8.46l1.94,0.13v1.48h-6.3v-1.28l-3.81-6.14h-1.61v5.38l0.43,0.39l1.64,0.16
		v1.48h-8.23V103.44z"/>
	<path class="st0" d="M54.36,103.44l1.67-0.16l0.46-0.46V83.49h-2.36v-1.28l5.02-1.54h1.38v15.75h0.72l4.69-5.51l-0.23-0.36
		l-1.44-0.16v-1.44h6.69v1.44l-2.13,0.26l-3.74,4.2l5.22,8.46l1.94,0.13v1.48h-6.3v-1.28l-3.81-6.14h-1.61v5.38l0.43,0.39l1.64,0.16
		v1.48h-8.23V103.44z"/>
	<path class="st0" d="M72.27,103.44l1.77-0.16l0.46-0.46V91.5h-2.17v-1.31l4.63-1.54h1.57v14.17l0.49,0.46l1.87,0.16v1.48h-8.63
		V103.44z M76.67,81.2c0.7,0,1.28,0.22,1.74,0.67c0.46,0.45,0.69,1.02,0.69,1.72s-0.23,1.28-0.69,1.75
		c-0.46,0.47-1.04,0.71-1.74,0.71c-0.7,0-1.28-0.23-1.74-0.69c-0.46-0.46-0.69-1.04-0.69-1.74c0-0.7,0.23-1.28,0.69-1.74
		C75.39,81.43,75.97,81.2,76.67,81.2z"/>
	<path class="st0" d="M82.01,103.44l1.67-0.16l0.46-0.46V91.46h-2.23v-1.3l4.69-1.52h1.57v1.94c0.72-0.39,1.36-0.72,1.92-0.98
		c0.56-0.26,1.05-0.47,1.49-0.62c0.44-0.15,0.85-0.26,1.23-0.33c0.38-0.07,0.77-0.1,1.16-0.1c2.86,0,4.3,1.83,4.3,5.48v8.79
		l0.43,0.46l1.71,0.16v1.48h-8.07v-1.48l1.44-0.16l0.46-0.46v-7.86c0-2.39-0.96-3.58-2.89-3.58c-0.42,0-0.87,0.05-1.38,0.15
		c-0.5,0.1-1.1,0.25-1.8,0.44v10.86l0.46,0.46l1.44,0.16v1.48h-8.07V103.44z"/>
	<path class="st0" d="M110.03,101.76c1.29,0.18,2.39,0.39,3.3,0.64c0.91,0.25,1.65,0.55,2.23,0.9c0.58,0.35,1,0.77,1.26,1.25
		c0.26,0.48,0.39,1.03,0.39,1.64c0,0.83-0.22,1.6-0.67,2.31c-0.45,0.71-1.07,1.33-1.85,1.85c-0.79,0.53-1.72,0.94-2.81,1.23
		c-1.08,0.3-2.26,0.44-3.53,0.44c-2.1,0-3.75-0.4-4.95-1.21c-1.2-0.81-1.8-1.91-1.8-3.31c0-1.01,0.3-1.83,0.9-2.46
		c0.6-0.63,1.43-1.01,2.48-1.12c-0.28-0.59-0.43-1.14-0.43-1.64c0-0.52,0.14-1.02,0.41-1.49c0.27-0.47,0.74-1.01,1.39-1.62
		c-1.4-0.46-2.43-1.09-3.08-1.89c-0.66-0.8-0.98-1.82-0.98-3.07c0-0.85,0.16-1.62,0.49-2.31c0.33-0.69,0.8-1.28,1.41-1.79
		c0.61-0.5,1.34-0.89,2.2-1.16c0.85-0.27,1.79-0.41,2.82-0.41c0.39,0,0.77,0.02,1.12,0.05c0.35,0.03,0.71,0.09,1.07,0.18
		s0.74,0.19,1.13,0.31c0.39,0.12,0.83,0.28,1.31,0.48h4.86v1.87h-3.54c0.28,0.5,0.48,0.95,0.59,1.33c0.11,0.38,0.16,0.79,0.16,1.23
		c0,0.79-0.17,1.52-0.51,2.18c-0.34,0.67-0.81,1.24-1.41,1.72c-0.6,0.48-1.32,0.85-2.17,1.11c-0.84,0.26-1.77,0.39-2.77,0.39
		c-0.11,0-0.21,0-0.31,0c-0.1,0-0.36-0.01-0.77-0.03c-0.18,0.44-0.26,0.85-0.26,1.25c0,0.24,0.03,0.53,0.1,0.85L110.03,101.76z
		 M106.98,104.29c-0.9,0.83-1.34,1.73-1.34,2.69c0,0.46,0.1,0.89,0.3,1.3s0.46,0.75,0.8,1.05c0.34,0.3,0.74,0.52,1.21,0.69
		c0.47,0.16,0.98,0.25,1.53,0.25c1.12,0,2.03-0.29,2.76-0.87c0.72-0.58,1.08-1.32,1.08-2.21c0-0.7-0.26-1.22-0.79-1.57
		c-0.52-0.35-1.44-0.63-2.76-0.85L106.98,104.29z M109.18,90.09c-0.81,0-1.46,0.35-1.95,1.05c-0.49,0.7-0.74,1.64-0.74,2.82
		c0,1.2,0.24,2.17,0.72,2.89c0.48,0.72,1.14,1.08,1.97,1.08c0.81,0,1.46-0.36,1.95-1.08s0.74-1.67,0.74-2.85
		c0-1.18-0.24-2.13-0.72-2.84C110.67,90.44,110.01,90.09,109.18,90.09z"/>
	<path class="st0" d="M131.22,103.11c-1.14,0.74-2.14,1.28-3.02,1.61c-0.88,0.33-1.74,0.49-2.59,0.49c-2.91,0-4.36-1.87-4.36-5.61
		v-8.2h-2.13v-1.28l4.59-1.57h1.57v10.17c0,1.29,0.24,2.22,0.72,2.8c0.48,0.58,1.25,0.87,2.3,0.87c0.44,0,0.87-0.04,1.31-0.11
		c0.44-0.08,0.97-0.21,1.61-0.41V91.4h-2.13v-1.28l4.66-1.57h1.51v14.27l0.46,0.46l1.67,0.16v1.48h-6.17V103.11z"/>
	<path class="st0" d="M0.3,143.49l1.94-0.16l0.59-0.52v-17.49l-0.49-0.46l-2.17-0.16v-1.61h8.86c3.11,0,5.37,0.52,6.81,1.57
		c1.43,1.05,2.15,2.7,2.15,4.95c0,2.38-0.74,4.21-2.23,5.48c-1.49,1.27-3.63,1.9-6.43,1.9c-0.37,0-1.09-0.03-2.17-0.1v5.91
		l0.49,0.52l2.33,0.16v1.61H0.3V143.49z M7.15,135.03c0.44,0.04,0.72,0.07,0.84,0.07c0.12,0,0.23,0,0.34,0
		c3.41,0,5.12-1.74,5.12-5.22c0-1.6-0.39-2.82-1.16-3.66c-0.78-0.84-1.92-1.26-3.43-1.26H7.15V135.03z"/>
	<path class="st0" d="M20.24,130.83l-1.97-0.23v-1.48h8.14v1.48l-1.61,0.26l-0.36,0.46l2.66,9.45l3.84-11.65h3.28l3.58,11.65
		l2.89-9.48l-0.23-0.46l-1.74-0.23v-1.48h6.2v1.48l-1.84,0.26l-4.46,14.24H35.3l-3.64-11.78l-3.9,11.78h-3.28L20.24,130.83z"/>
	<path class="st0" d="M60.82,142.61l0.82-3.97H64v5.66c-1.29,0.44-2.46,0.76-3.51,0.93c-1.05,0.18-2.18,0.27-3.38,0.27
		c-1.71,0-3.23-0.25-4.56-0.76c-1.33-0.5-2.54-1.28-3.61-2.33c-1.12-1.07-1.96-2.32-2.53-3.74c-0.57-1.42-0.85-2.95-0.85-4.59
		c0-1.68,0.28-3.23,0.85-4.63c0.57-1.4,1.37-2.6,2.41-3.59c1.04-0.99,2.27-1.77,3.71-2.33c1.43-0.56,3.02-0.84,4.77-0.84
		c1.14,0,2.23,0.1,3.28,0.28c1.05,0.19,2.19,0.51,3.41,0.95v5.49h-2.43l-0.62-3.51l-0.46-0.56c-0.5-0.2-0.95-0.33-1.35-0.41
		c-0.39-0.08-0.84-0.11-1.34-0.11c-1.12,0-2.12,0.22-3.02,0.65c-0.9,0.44-1.66,1.05-2.3,1.85c-0.63,0.8-1.13,1.76-1.48,2.89
		c-0.35,1.13-0.53,2.4-0.53,3.79c0,1.44,0.18,2.74,0.54,3.89c0.36,1.16,0.87,2.14,1.53,2.94c0.66,0.81,1.46,1.43,2.41,1.86
		c0.95,0.44,2.02,0.65,3.2,0.65c0.37,0,0.72-0.02,1.05-0.05c0.33-0.03,0.7-0.1,1.12-0.21L60.82,142.61z"/>
</g>
</svg>
