<!-- Generator: Adobe Illustrator 25.2.0, SVG Export Plug-In  -->
<svg version="1.1" xmlns="http://www.w3.org/2000/svg" xmlns:xlink="http://www.w3.org/1999/xlink" x="0px" y="0px"
	 width="182.65px" height="97.93px" viewBox="0 0 182.65 97.93" style="overflow:visible;enable-background:new 0 0 182.65 97.93;"
	 xml:space="preserve">
<style type="text/css">
	.st0{fill:#FFFFFF;}
</style>
<defs>
</defs>
<g>
	<path class="st0" d="M0,21.39l1.77-0.15l0.49-0.49V4.5L1.77,4.01L0,3.85v-1.5h8.63v1.5L6.79,4.01L6.3,4.5v6.7h8.84V4.5l-0.46-0.49
		l-1.84-0.15v-1.5h8.6v1.5l-1.77,0.15L19.19,4.5v16.25l0.49,0.49l1.77,0.15v1.5h-8.6v-1.5l1.84-0.15l0.46-0.49v-7.71H6.3v7.71
		l0.49,0.49l1.84,0.15v1.5H0V21.39z"/>
	<path class="st0" d="M32.83,21.14c-1.12,0.73-2.08,1.26-2.88,1.56c-0.8,0.31-1.6,0.46-2.42,0.46c-1.18,0-2.15-0.37-2.89-1.12
		c-0.74-0.74-1.12-1.72-1.12-2.92c0-2.04,1.2-3.47,3.61-4.28c0.71-0.22,1.57-0.47,2.57-0.75c1-0.28,2.05-0.52,3.15-0.75v-0.92
		c0-1.1-0.23-1.9-0.69-2.4c-0.46-0.5-1.21-0.75-2.25-0.75c-0.51,0-0.99,0.05-1.44,0.15v2.88h-2.82c-0.94,0-1.41-0.37-1.41-1.1
		c0-0.51,0.17-0.98,0.52-1.41c0.35-0.43,0.83-0.81,1.44-1.13c0.61-0.33,1.34-0.58,2.17-0.77c0.84-0.18,1.74-0.28,2.72-0.28
		c1,0,1.85,0.1,2.54,0.29c0.69,0.19,1.26,0.51,1.7,0.95c0.44,0.44,0.75,1,0.95,1.68c0.19,0.68,0.29,1.51,0.29,2.49v7.9l0.4,0.43
		l1.59,0.15v1.38h-5.36L32.83,21.14z M32.83,14.9c-1.01,0.23-1.84,0.45-2.51,0.67c-0.67,0.22-1.2,0.48-1.6,0.76
		c-0.4,0.29-0.69,0.6-0.86,0.95c-0.17,0.35-0.26,0.75-0.26,1.22c0,0.69,0.2,1.24,0.6,1.65c0.4,0.41,0.94,0.61,1.62,0.61
		c0.43,0,0.86-0.06,1.29-0.18c0.43-0.12,1.01-0.36,1.72-0.7V14.9z M32.1,0h3.79l-4.71,5.81h-2.05L32.1,0z"/>
	<path class="st0" d="M39.87,21.51l1.56-0.15l0.43-0.43V10.34h-1.99V9.13l4.28-1.42h1.47v1.81c0.63-0.37,1.19-0.67,1.67-0.9
		c0.48-0.23,0.92-0.43,1.32-0.58c0.4-0.15,0.77-0.26,1.1-0.32c0.34-0.06,0.68-0.09,1.03-0.09c1.49,0,2.65,0.7,3.49,2.11
		c0.69-0.39,1.32-0.72,1.87-0.99c0.55-0.28,1.05-0.49,1.48-0.66c0.44-0.16,0.84-0.28,1.21-0.35c0.37-0.07,0.73-0.11,1.1-0.11
		c1.29,0,2.27,0.44,2.97,1.32c0.69,0.88,1.04,2.14,1.04,3.79v8.2l0.4,0.43l1.59,0.15v1.38h-7.53v-1.38l1.35-0.15l0.43-0.43v-7.33
		c0-1.17-0.21-2.01-0.64-2.55c-0.43-0.53-1.11-0.8-2.05-0.8c-0.41,0-0.82,0.05-1.24,0.14c-0.42,0.09-0.92,0.25-1.51,0.48v10.07
		l0.43,0.43l1.35,0.15v1.38h-7.31v-1.38l1.35-0.15l0.43-0.43v-7.52c0-2.11-0.88-3.16-2.63-3.16c-0.41,0-0.81,0.04-1.19,0.12
		c-0.39,0.08-0.88,0.22-1.47,0.43v10.13l0.43,0.43l1.35,0.15v1.38h-7.53V21.51z"/>
	<path class="st0" d="M76.65,21.14c-1.12,0.73-2.08,1.26-2.88,1.56c-0.8,0.31-1.6,0.46-2.42,0.46c-1.18,0-2.15-0.37-2.89-1.12
		c-0.74-0.74-1.12-1.72-1.12-2.92c0-2.04,1.2-3.47,3.61-4.28c0.71-0.22,1.57-0.47,2.57-0.75c1-0.28,2.05-0.52,3.15-0.75v-0.92
		c0-1.1-0.23-1.9-0.69-2.4c-0.46-0.5-1.21-0.75-2.25-0.75c-0.51,0-0.99,0.05-1.44,0.15v2.88h-2.82c-0.94,0-1.41-0.37-1.41-1.1
		c0-0.51,0.17-0.98,0.52-1.41c0.35-0.43,0.83-0.81,1.44-1.13c0.61-0.33,1.34-0.58,2.17-0.77c0.84-0.18,1.74-0.28,2.72-0.28
		c1,0,1.85,0.1,2.54,0.29c0.69,0.19,1.26,0.51,1.7,0.95c0.44,0.44,0.75,1,0.95,1.68c0.19,0.68,0.29,1.51,0.29,2.49v7.9l0.4,0.43
		l1.59,0.15v1.38h-5.36L76.65,21.14z M76.65,14.9c-1.01,0.23-1.84,0.45-2.51,0.67c-0.67,0.22-1.2,0.48-1.6,0.76
		c-0.4,0.29-0.69,0.6-0.86,0.95c-0.17,0.35-0.26,0.75-0.26,1.22c0,0.69,0.2,1.24,0.6,1.65c0.4,0.41,0.94,0.61,1.62,0.61
		c0.43,0,0.86-0.06,1.29-0.18c0.43-0.12,1.01-0.36,1.72-0.7V14.9z"/>
	<path class="st0" d="M83.63,21.51l1.62-0.15l0.43-0.43V10.37h-2.2V9.15l4.5-1.44h1.47l-0.12,3.12c0.53-0.59,1.08-1.13,1.65-1.61
		c0.57-0.48,1.21-0.98,1.93-1.52c0.14-0.04,0.25-0.06,0.34-0.06c0.08,0,0.18,0,0.31,0c0.37,0,0.69,0.03,0.96,0.09
		c0.28,0.06,0.64,0.2,1.09,0.43l-0.4,4.22H93.6c-0.51-0.75-1.13-1.13-1.87-1.13c-0.31,0-0.63,0.07-0.98,0.2
		c-0.35,0.13-0.79,0.36-1.32,0.69v8.78l0.46,0.43l2.17,0.15v1.38h-8.45V21.51z"/>
	<path class="st0" d="M96.24,21.51l1.56-0.15l0.43-0.43V2.91h-2.2V1.71l4.68-1.44h1.29v14.69h0.67l4.38-5.14l-0.21-0.34l-1.35-0.15
		V7.99h6.24v1.35l-1.99,0.24l-3.49,3.92l4.87,7.9l1.81,0.12v1.38h-5.88v-1.19l-3.55-5.72h-1.5v5.02l0.4,0.37l1.53,0.15v1.38h-7.68
		V21.51z"/>
	<path class="st0" d="M123.38,21.14c-1.12,0.73-2.08,1.26-2.88,1.56c-0.8,0.31-1.6,0.46-2.42,0.46c-1.18,0-2.15-0.37-2.89-1.12
		c-0.74-0.74-1.12-1.72-1.12-2.92c0-2.04,1.2-3.47,3.61-4.28c0.71-0.22,1.57-0.47,2.57-0.75c1-0.28,2.05-0.52,3.15-0.75v-0.92
		c0-1.1-0.23-1.9-0.69-2.4c-0.46-0.5-1.21-0.75-2.25-0.75c-0.51,0-0.99,0.05-1.44,0.15v2.88h-2.82c-0.94,0-1.41-0.37-1.41-1.1
		c0-0.51,0.17-0.98,0.52-1.41c0.35-0.43,0.83-0.81,1.44-1.13c0.61-0.33,1.34-0.58,2.17-0.77c0.84-0.18,1.74-0.28,2.72-0.28
		c1,0,1.85,0.1,2.54,0.29c0.69,0.19,1.26,0.51,1.7,0.95c0.44,0.44,0.75,1,0.95,1.68c0.19,0.68,0.29,1.51,0.29,2.49v7.9l0.4,0.43
		l1.59,0.15v1.38h-5.36L123.38,21.14z M123.38,14.9c-1.01,0.23-1.84,0.45-2.51,0.67c-0.67,0.22-1.2,0.48-1.6,0.76
		c-0.4,0.29-0.69,0.6-0.86,0.95c-0.17,0.35-0.26,0.75-0.26,1.22c0,0.69,0.2,1.24,0.6,1.65c0.4,0.41,0.94,0.61,1.62,0.61
		c0.43,0,0.86-0.06,1.29-0.18c0.43-0.12,1.01-0.36,1.72-0.7V14.9z"/>
	<path class="st0" d="M133.57,6.03l3.34-1.96l-0.98-1.1l-2.48-0.12l-0.09-1.07l4.44-1.65l2.3,2.29l3.27-1.9l0.76,1.32l-3.06,1.81
		c1.71,2.02,2.97,3.93,3.76,5.72c0.8,1.8,1.19,3.62,1.19,5.48c0,1.27-0.18,2.41-0.55,3.44c-0.37,1.03-0.89,1.91-1.56,2.63
		c-0.67,0.73-1.48,1.28-2.43,1.67c-0.95,0.39-2,0.58-3.17,0.58c-1.14,0-2.19-0.18-3.14-0.55c-0.95-0.37-1.76-0.89-2.43-1.56
		c-0.67-0.67-1.2-1.48-1.58-2.43c-0.38-0.95-0.57-1.99-0.57-3.14c0-1.12,0.18-2.14,0.54-3.06c0.36-0.92,0.87-1.7,1.53-2.36
		c0.66-0.65,1.45-1.16,2.37-1.51c0.92-0.36,1.95-0.54,3.09-0.54c0.35,0,0.68,0.01,0.99,0.03c0.32,0.02,0.65,0.06,0.99,0.12
		c-0.35-0.59-0.67-1.09-0.98-1.5c-0.31-0.41-0.69-0.9-1.16-1.47l-3.67,2.17L133.57,6.03z M140.94,9.91
		c-0.47-0.14-0.85-0.24-1.13-0.29c-0.29-0.05-0.57-0.08-0.86-0.08c-1.35,0-2.37,0.52-3.08,1.56s-1.06,2.53-1.06,4.47
		c0,1.9,0.31,3.36,0.93,4.39c0.62,1.03,1.5,1.55,2.65,1.55c1.16,0,2.05-0.56,2.66-1.67s0.92-2.69,0.92-4.73
		c0-0.55-0.02-1.05-0.06-1.5c-0.04-0.45-0.1-0.88-0.18-1.3c-0.08-0.42-0.19-0.82-0.32-1.21C141.28,10.72,141.13,10.32,140.94,9.91z"
		/>
	<path class="st0" d="M159.24,21.21c-1.06,0.69-2,1.19-2.82,1.5c-0.82,0.31-1.62,0.46-2.42,0.46c-2.71,0-4.07-1.74-4.07-5.23v-7.65
		h-1.99V9.09l4.28-1.47h1.47v9.49c0,1.2,0.22,2.08,0.67,2.62c0.45,0.54,1.16,0.81,2.14,0.81c0.41,0,0.82-0.04,1.22-0.11
		c0.41-0.07,0.91-0.2,1.5-0.38v-9.76h-1.99V9.09l4.35-1.47H163v13.31l0.43,0.43l1.56,0.15v1.38h-5.75V21.21z"/>
	<path class="st0" d="M9.49,55.34c-1.12,0.73-2.08,1.26-2.88,1.56s-1.6,0.46-2.42,0.46c-1.18,0-2.15-0.37-2.89-1.12
		c-0.74-0.74-1.12-1.72-1.12-2.92c0-2.04,1.2-3.47,3.61-4.28c0.71-0.22,1.57-0.47,2.57-0.75c1-0.28,2.05-0.52,3.15-0.75v-0.92
		c0-1.1-0.23-1.9-0.69-2.4c-0.46-0.5-1.21-0.75-2.25-0.75c-0.51,0-0.99,0.05-1.44,0.15v2.88H2.33c-0.94,0-1.41-0.37-1.41-1.1
		c0-0.51,0.17-0.98,0.52-1.41c0.35-0.43,0.83-0.81,1.44-1.13s1.34-0.58,2.17-0.77c0.84-0.18,1.74-0.28,2.72-0.28
		c1,0,1.85,0.1,2.54,0.29c0.69,0.19,1.26,0.51,1.7,0.95c0.44,0.44,0.75,1,0.95,1.68c0.19,0.68,0.29,1.51,0.29,2.49v7.9l0.4,0.43
		l1.59,0.15v1.38H9.88L9.49,55.34z M9.49,49.1c-1.01,0.22-1.84,0.45-2.51,0.67c-0.67,0.23-1.2,0.48-1.6,0.76
		c-0.4,0.29-0.69,0.6-0.86,0.95c-0.17,0.35-0.26,0.75-0.26,1.22c0,0.69,0.2,1.24,0.6,1.65c0.4,0.41,0.94,0.61,1.62,0.61
		c0.43,0,0.86-0.06,1.29-0.18c0.43-0.12,1.01-0.36,1.72-0.7V49.1z M8.75,34.2h3.79l-4.71,5.81H5.78L8.75,34.2z"/>
	<path class="st0" d="M16.46,55.71l1.62-0.15l0.43-0.43V44.57h-2.2v-1.22l4.5-1.44h1.47l-0.12,3.12c0.53-0.59,1.08-1.13,1.65-1.61
		c0.57-0.48,1.21-0.98,1.93-1.52c0.14-0.04,0.25-0.06,0.34-0.06c0.08,0,0.18,0,0.31,0c0.37,0,0.69,0.03,0.96,0.09
		c0.28,0.06,0.64,0.2,1.09,0.43l-0.4,4.22h-1.59c-0.51-0.75-1.13-1.13-1.87-1.13c-0.31,0-0.63,0.07-0.98,0.2
		c-0.35,0.13-0.79,0.36-1.32,0.69v8.78l0.46,0.43l2.17,0.15v1.38h-8.45V55.71z"/>
	<path class="st0" d="M38.92,55.34c-1.12,0.73-2.08,1.26-2.88,1.56s-1.6,0.46-2.42,0.46c-1.18,0-2.15-0.37-2.89-1.12
		c-0.74-0.74-1.12-1.72-1.12-2.92c0-2.04,1.2-3.47,3.61-4.28c0.71-0.22,1.57-0.47,2.57-0.75c1-0.28,2.05-0.52,3.15-0.75v-0.92
		c0-1.1-0.23-1.9-0.69-2.4c-0.46-0.5-1.21-0.75-2.25-0.75c-0.51,0-0.99,0.05-1.44,0.15v2.88h-2.82c-0.94,0-1.41-0.37-1.41-1.1
		c0-0.51,0.17-0.98,0.52-1.41c0.35-0.43,0.83-0.81,1.44-1.13s1.34-0.58,2.17-0.77c0.84-0.18,1.74-0.28,2.72-0.28
		c1,0,1.85,0.1,2.54,0.29c0.69,0.19,1.26,0.51,1.7,0.95c0.44,0.44,0.75,1,0.95,1.68c0.19,0.68,0.29,1.51,0.29,2.49v7.9l0.4,0.43
		l1.59,0.15v1.38h-5.36L38.92,55.34z M38.92,49.1c-1.01,0.22-1.84,0.45-2.51,0.67c-0.67,0.23-1.2,0.48-1.6,0.76
		c-0.4,0.29-0.69,0.6-0.86,0.95c-0.17,0.35-0.26,0.75-0.26,1.22c0,0.69,0.2,1.24,0.6,1.65c0.4,0.41,0.94,0.61,1.62,0.61
		c0.43,0,0.86-0.06,1.29-0.18c0.43-0.12,1.01-0.36,1.72-0.7V49.1z"/>
	<path class="st0" d="M45.96,55.71l1.56-0.15l0.43-0.43V44.54h-2.08v-1.21l4.38-1.42h1.47v1.81c0.67-0.37,1.27-0.67,1.79-0.92
		c0.52-0.25,0.98-0.44,1.39-0.58c0.41-0.14,0.79-0.24,1.15-0.31c0.36-0.06,0.72-0.09,1.09-0.09c2.67,0,4.01,1.7,4.01,5.11v8.2
		l0.4,0.43l1.59,0.15v1.38H55.6v-1.38l1.35-0.15l0.43-0.43v-7.33c0-2.23-0.9-3.34-2.69-3.34c-0.39,0-0.82,0.05-1.29,0.14
		c-0.47,0.09-1.03,0.23-1.68,0.41v10.13l0.43,0.43l1.35,0.15v1.38h-7.53V55.71z"/>
	<path class="st0" d="M72.37,54.15c1.2,0.16,2.23,0.36,3.08,0.6c0.85,0.23,1.54,0.52,2.08,0.84c0.54,0.33,0.93,0.71,1.18,1.16
		c0.24,0.45,0.37,0.96,0.37,1.53c0,0.78-0.21,1.49-0.63,2.16c-0.42,0.66-0.99,1.24-1.73,1.73c-0.73,0.49-1.61,0.87-2.62,1.15
		c-1.01,0.28-2.11,0.41-3.29,0.41c-1.96,0-3.5-0.38-4.62-1.13c-1.12-0.75-1.68-1.79-1.68-3.09c0-0.94,0.28-1.7,0.84-2.29
		c0.56-0.59,1.33-0.94,2.31-1.04c-0.27-0.55-0.4-1.06-0.4-1.53c0-0.49,0.13-0.95,0.38-1.39c0.25-0.44,0.69-0.94,1.3-1.52
		c-1.31-0.43-2.26-1.01-2.88-1.76c-0.61-0.74-0.92-1.7-0.92-2.86c0-0.8,0.15-1.51,0.46-2.16c0.31-0.64,0.74-1.2,1.32-1.67
		c0.57-0.47,1.25-0.83,2.05-1.09c0.8-0.25,1.67-0.38,2.63-0.38c0.37,0,0.71,0.01,1.04,0.05c0.33,0.03,0.66,0.09,0.99,0.17
		c0.34,0.08,0.69,0.18,1.06,0.29c0.37,0.11,0.77,0.26,1.22,0.44h4.53v1.74h-3.3c0.26,0.47,0.45,0.88,0.55,1.24
		c0.1,0.36,0.15,0.74,0.15,1.15c0,0.73-0.16,1.41-0.47,2.04c-0.32,0.62-0.75,1.16-1.32,1.61c-0.56,0.45-1.23,0.8-2.02,1.04
		c-0.79,0.25-1.65,0.37-2.59,0.37c-0.1,0-0.2,0-0.29,0c-0.09,0-0.33-0.01-0.72-0.03c-0.16,0.41-0.24,0.8-0.24,1.16
		c0,0.23,0.03,0.49,0.09,0.8L72.37,54.15z M69.52,56.51c-0.84,0.78-1.25,1.61-1.25,2.51c0,0.43,0.09,0.83,0.28,1.21
		c0.18,0.38,0.43,0.7,0.75,0.98c0.32,0.28,0.69,0.49,1.13,0.64c0.44,0.15,0.91,0.23,1.42,0.23c1.04,0,1.9-0.27,2.57-0.81
		c0.67-0.54,1.01-1.23,1.01-2.07c0-0.65-0.24-1.14-0.73-1.47c-0.49-0.33-1.35-0.59-2.57-0.8L69.52,56.51z M71.57,43.26
		c-0.75,0-1.36,0.33-1.82,0.98c-0.46,0.65-0.69,1.53-0.69,2.63c0,1.12,0.22,2.02,0.67,2.69c0.45,0.67,1.06,1.01,1.84,1.01
		c0.75,0,1.36-0.34,1.82-1.01c0.46-0.67,0.69-1.56,0.69-2.66c0-1.1-0.22-1.98-0.67-2.65C72.96,43.59,72.35,43.26,71.57,43.26z"/>
	<path class="st0" d="M92.41,55.41c-1.06,0.69-2,1.19-2.82,1.5c-0.82,0.31-1.62,0.46-2.42,0.46c-2.71,0-4.07-1.74-4.07-5.23v-7.65
		h-1.99v-1.19l4.28-1.47h1.47v9.49c0,1.2,0.22,2.08,0.67,2.62c0.45,0.54,1.16,0.81,2.14,0.81c0.41,0,0.82-0.04,1.22-0.11
		c0.41-0.07,0.91-0.2,1.5-0.38v-9.76h-1.99v-1.19l4.35-1.47h1.41v13.31l0.43,0.43l1.56,0.15v1.38h-5.75V55.41z"/>
	<path class="st0" d="M99.63,55.71l1.62-0.15l0.43-0.43V44.57h-2.2v-1.22l4.5-1.44h1.47l-0.12,3.12c0.53-0.59,1.08-1.13,1.65-1.61
		c0.57-0.48,1.21-0.98,1.93-1.52c0.14-0.04,0.25-0.06,0.34-0.06c0.08,0,0.18,0,0.31,0c0.37,0,0.69,0.03,0.96,0.09
		s0.64,0.2,1.09,0.43l-0.4,4.22h-1.59c-0.51-0.75-1.13-1.13-1.87-1.13c-0.31,0-0.63,0.07-0.98,0.2c-0.35,0.13-0.79,0.36-1.32,0.69
		v8.78l0.46,0.43l2.17,0.15v1.38h-8.45V55.71z"/>
	<path class="st0" d="M119.46,62.38l1.68-0.15l0.4-0.46V37.14h-2.2v-1.19l4.62-1.47h1.35v9.27c1.06-0.71,1.95-1.21,2.68-1.5
		c0.73-0.29,1.45-0.43,2.17-0.43c0.81,0,1.57,0.18,2.27,0.55c0.7,0.37,1.31,0.87,1.82,1.51c0.51,0.64,0.91,1.41,1.19,2.29
		s0.43,1.85,0.43,2.89c0,1.22-0.19,2.34-0.56,3.34c-0.38,1-0.92,1.85-1.62,2.54c-0.7,0.69-1.55,1.23-2.53,1.61
		c-0.99,0.38-2.09,0.57-3.31,0.57c-0.35,0-0.72-0.02-1.11-0.05c-0.4-0.03-0.87-0.08-1.42-0.14v4.9l0.46,0.43l1.93,0.12v1.38h-8.23
		V62.38z M125.3,55.25c0.69,0.14,1.32,0.21,1.87,0.21c1.43,0,2.55-0.52,3.38-1.56c0.83-1.04,1.24-2.48,1.24-4.31
		c0-1.59-0.36-2.85-1.07-3.76c-0.71-0.92-1.69-1.38-2.94-1.38c-0.37,0-0.72,0.04-1.07,0.12c-0.35,0.08-0.82,0.23-1.41,0.46V55.25z"
		/>
	<path class="st0" d="M137.67,55.71l1.65-0.15l0.43-0.43V44.57h-2.02v-1.22l4.31-1.44h1.47v13.22l0.46,0.43l1.74,0.15v1.38h-8.05
		V55.71z M141.77,34.96c0.65,0,1.19,0.21,1.62,0.63c0.43,0.42,0.64,0.95,0.64,1.61c0,0.65-0.21,1.2-0.64,1.64
		c-0.43,0.44-0.97,0.66-1.62,0.66c-0.65,0-1.19-0.21-1.62-0.64c-0.43-0.43-0.64-0.97-0.64-1.62c0-0.65,0.21-1.19,0.64-1.62
		C140.57,35.18,141.11,34.96,141.77,34.96z"/>
	<path class="st0" d="M147.03,55.71l1.56-0.15l0.43-0.43V44.54h-2.08v-1.21l4.38-1.42h1.47v1.81c0.67-0.37,1.27-0.67,1.79-0.92
		c0.52-0.25,0.98-0.44,1.39-0.58c0.41-0.14,0.79-0.24,1.15-0.31c0.36-0.06,0.72-0.09,1.09-0.09c2.67,0,4.01,1.7,4.01,5.11v8.2
		l0.4,0.43l1.59,0.15v1.38h-7.53v-1.38l1.35-0.15l0.43-0.43v-7.33c0-2.23-0.9-3.34-2.69-3.34c-0.39,0-0.82,0.05-1.29,0.14
		c-0.47,0.09-1.03,0.23-1.68,0.41v10.13l0.43,0.43l1.35,0.15v1.38h-7.53V55.71z"/>
	<path class="st0" d="M165.48,55.71l1.56-0.15l0.43-0.43V44.54h-2.08v-1.21l4.38-1.42h1.47v1.81c0.67-0.37,1.27-0.67,1.79-0.92
		c0.52-0.25,0.98-0.44,1.39-0.58c0.41-0.14,0.79-0.24,1.15-0.31c0.36-0.06,0.72-0.09,1.09-0.09c2.67,0,4.01,1.7,4.01,5.11v8.2
		l0.4,0.43l1.59,0.15v1.38h-7.53v-1.38l1.35-0.15l0.43-0.43v-7.33c0-2.23-0.9-3.34-2.69-3.34c-0.39,0-0.82,0.05-1.29,0.14
		c-0.47,0.09-1.03,0.23-1.68,0.41v10.13l0.43,0.43l1.35,0.15v1.38h-7.53V55.71z"/>
	<path class="st0" d="M8.2,76.02c1.14,0,2.18,0.19,3.11,0.57c0.93,0.38,1.72,0.91,2.39,1.59c0.66,0.68,1.18,1.5,1.55,2.46
		c0.37,0.96,0.55,2.02,0.55,3.18c0,1.16-0.19,2.22-0.57,3.18c-0.38,0.96-0.91,1.77-1.59,2.45c-0.68,0.67-1.51,1.19-2.49,1.56
		c-0.98,0.37-2.06,0.55-3.24,0.55c-1.16,0-2.22-0.18-3.17-0.55c-0.95-0.37-1.76-0.89-2.43-1.56c-0.67-0.67-1.19-1.48-1.56-2.43
		c-0.37-0.95-0.55-2-0.55-3.17c0-1.18,0.19-2.26,0.57-3.23c0.38-0.97,0.91-1.8,1.61-2.48c0.69-0.68,1.53-1.21,2.52-1.58
		C5.87,76.2,6.98,76.02,8.2,76.02z M7.96,77.67c-1.12,0-1.99,0.54-2.62,1.61c-0.62,1.07-0.93,2.57-0.93,4.48
		c0,1.96,0.31,3.47,0.93,4.54c0.62,1.07,1.49,1.61,2.62,1.61c1.16,0,2.05-0.52,2.68-1.58c0.62-1.05,0.93-2.54,0.93-4.48
		c0-1.98-0.31-3.5-0.93-4.57C10.01,78.21,9.12,77.67,7.96,77.67z"/>
	<path class="st0" d="M25.83,88.35c1.2,0.16,2.23,0.36,3.08,0.6c0.85,0.23,1.54,0.52,2.08,0.84c0.54,0.33,0.93,0.71,1.18,1.16
		c0.24,0.45,0.37,0.96,0.37,1.53c0,0.78-0.21,1.49-0.63,2.16c-0.42,0.66-0.99,1.24-1.73,1.73c-0.73,0.49-1.61,0.87-2.62,1.15
		c-1.01,0.28-2.11,0.41-3.29,0.41c-1.96,0-3.5-0.38-4.62-1.13c-1.12-0.75-1.68-1.79-1.68-3.09c0-0.94,0.28-1.7,0.84-2.29
		c0.56-0.59,1.33-0.94,2.31-1.04c-0.27-0.55-0.4-1.06-0.4-1.53c0-0.49,0.13-0.95,0.38-1.39c0.25-0.44,0.69-0.94,1.3-1.52
		c-1.31-0.43-2.26-1.01-2.88-1.76c-0.61-0.74-0.92-1.7-0.92-2.86c0-0.8,0.15-1.51,0.46-2.16c0.31-0.64,0.74-1.2,1.32-1.67
		c0.57-0.47,1.25-0.83,2.05-1.09c0.8-0.25,1.67-0.38,2.63-0.38c0.37,0,0.71,0.01,1.04,0.05c0.33,0.03,0.66,0.09,0.99,0.17
		c0.34,0.08,0.69,0.18,1.06,0.29c0.37,0.11,0.77,0.26,1.22,0.44h4.53v1.74h-3.3c0.26,0.47,0.45,0.88,0.55,1.24
		c0.1,0.36,0.15,0.74,0.15,1.15c0,0.73-0.16,1.41-0.47,2.04c-0.32,0.62-0.75,1.16-1.32,1.61c-0.56,0.45-1.23,0.8-2.02,1.04
		c-0.79,0.25-1.65,0.37-2.59,0.37c-0.1,0-0.2,0-0.29,0c-0.09,0-0.33-0.01-0.72-0.03c-0.16,0.41-0.24,0.8-0.24,1.16
		c0,0.22,0.03,0.49,0.09,0.8L25.83,88.35z M22.98,90.71c-0.84,0.78-1.25,1.61-1.25,2.51c0,0.43,0.09,0.83,0.28,1.21
		c0.18,0.38,0.43,0.7,0.75,0.98c0.32,0.28,0.69,0.49,1.13,0.64c0.44,0.15,0.91,0.23,1.42,0.23c1.04,0,1.9-0.27,2.57-0.81
		c0.67-0.54,1.01-1.23,1.01-2.07c0-0.65-0.24-1.14-0.73-1.47c-0.49-0.33-1.35-0.59-2.57-0.8L22.98,90.71z M25.03,77.46
		c-0.75,0-1.36,0.33-1.82,0.98c-0.46,0.65-0.69,1.53-0.69,2.63c0,1.12,0.22,2.02,0.67,2.69c0.45,0.67,1.06,1.01,1.84,1.01
		c0.75,0,1.36-0.34,1.82-1.01s0.69-1.56,0.69-2.66c0-1.1-0.22-1.98-0.67-2.65C26.42,77.79,25.81,77.46,25.03,77.46z"/>
	<path class="st0" d="M42.56,77.98l-1.84-0.21v-1.38h7.77v1.38l-1.59,0.18l-0.34,0.4l3.18,8.93l3.49-8.9L53,77.95l-1.56-0.18v-1.38
		h5.81v1.38l-1.77,0.25l-5.26,13.28h-2.75L42.56,77.98z"/>
	<path class="st0" d="M71.42,89.78c-2.11,1.19-4.21,1.78-6.32,1.78c-1.14,0-2.19-0.18-3.13-0.55c-0.94-0.37-1.74-0.88-2.41-1.55
		c-0.66-0.66-1.18-1.46-1.53-2.4c-0.36-0.94-0.54-1.99-0.54-3.15s0.18-2.23,0.55-3.2c0.37-0.97,0.89-1.8,1.56-2.49
		c0.67-0.69,1.48-1.23,2.41-1.62c0.93-0.39,1.96-0.58,3.08-0.58c1.43,0,2.64,0.32,3.63,0.95c0.99,0.63,1.72,1.55,2.19,2.75
		c0.2,0.53,0.34,1.06,0.41,1.59c0.07,0.53,0.11,1.25,0.11,2.17H61.41c0.04,1.85,0.48,3.26,1.32,4.23c0.84,0.97,2.06,1.46,3.65,1.46
		c0.82,0,1.61-0.13,2.38-0.38c0.77-0.25,1.65-0.68,2.65-1.27V89.78z M67.41,81.83c0-0.79-0.05-1.41-0.14-1.85
		c-0.09-0.45-0.25-0.84-0.47-1.18c-0.22-0.36-0.52-0.64-0.89-0.84c-0.37-0.19-0.75-0.29-1.16-0.29c-0.94,0-1.68,0.36-2.23,1.09
		c-0.55,0.73-0.87,1.75-0.95,3.07H67.41z"/>
	<path class="st0" d="M73.29,89.91l1.62-0.15l0.43-0.43V78.77h-2.2v-1.22l4.5-1.44h1.47l-0.12,3.12c0.53-0.59,1.08-1.13,1.65-1.61
		c0.57-0.48,1.21-0.98,1.93-1.52c0.14-0.04,0.25-0.06,0.34-0.06c0.08,0,0.18,0,0.31,0c0.37,0,0.69,0.03,0.96,0.09
		s0.64,0.2,1.09,0.43l-0.4,4.22h-1.59c-0.51-0.75-1.13-1.13-1.87-1.13c-0.31,0-0.63,0.07-0.98,0.2c-0.35,0.13-0.79,0.36-1.32,0.69
		v8.78l0.46,0.43l2.17,0.15v1.38h-8.45V89.91z"/>
	<path class="st0" d="M89.41,74.43l3.34-1.96l-0.98-1.1l-2.48-0.12l-0.09-1.07l4.44-1.65l2.3,2.29l3.27-1.9l0.76,1.32l-3.06,1.81
		c1.71,2.02,2.97,3.93,3.76,5.72c0.8,1.8,1.19,3.62,1.19,5.48c0,1.27-0.18,2.41-0.55,3.44c-0.37,1.03-0.89,1.91-1.56,2.63
		c-0.67,0.73-1.48,1.28-2.43,1.67c-0.95,0.39-2,0.58-3.17,0.58c-1.14,0-2.19-0.18-3.14-0.55c-0.95-0.37-1.76-0.89-2.43-1.56
		c-0.67-0.67-1.2-1.48-1.58-2.43c-0.38-0.95-0.57-1.99-0.57-3.14c0-1.12,0.18-2.14,0.54-3.06c0.36-0.92,0.87-1.7,1.53-2.36
		c0.66-0.65,1.45-1.16,2.37-1.51c0.92-0.36,1.95-0.54,3.09-0.54c0.35,0,0.68,0.01,0.99,0.03c0.32,0.02,0.65,0.06,0.99,0.12
		c-0.35-0.59-0.67-1.09-0.98-1.5c-0.31-0.41-0.69-0.9-1.16-1.47l-3.67,2.17L89.41,74.43z M96.79,78.31
		c-0.47-0.14-0.85-0.24-1.13-0.29c-0.29-0.05-0.57-0.08-0.86-0.08c-1.35,0-2.37,0.52-3.08,1.56c-0.7,1.04-1.06,2.53-1.06,4.47
		c0,1.9,0.31,3.36,0.93,4.39c0.62,1.03,1.5,1.55,2.65,1.55c1.16,0,2.05-0.56,2.66-1.67s0.92-2.69,0.92-4.73
		c0-0.55-0.02-1.05-0.06-1.5c-0.04-0.45-0.1-0.88-0.18-1.3c-0.08-0.42-0.19-0.82-0.32-1.21C97.13,79.12,96.97,78.72,96.79,78.31z"/>
	<path class="st0" d="M103.95,89.91l1.56-0.15l0.43-0.43V78.74h-1.99v-1.21l4.28-1.42h1.47v1.81c0.63-0.37,1.19-0.67,1.67-0.9
		c0.48-0.23,0.92-0.43,1.32-0.58c0.4-0.15,0.77-0.26,1.1-0.32c0.34-0.06,0.68-0.09,1.03-0.09c1.49,0,2.65,0.7,3.49,2.11
		c0.69-0.39,1.32-0.72,1.87-0.99c0.55-0.28,1.05-0.49,1.48-0.66c0.44-0.16,0.84-0.28,1.21-0.35c0.37-0.07,0.73-0.11,1.1-0.11
		c1.29,0,2.27,0.44,2.97,1.32c0.69,0.88,1.04,2.14,1.04,3.79v8.2l0.4,0.43l1.59,0.15v1.38h-7.53v-1.38l1.35-0.15l0.43-0.43v-7.33
		c0-1.17-0.21-2.01-0.64-2.55c-0.43-0.53-1.11-0.8-2.05-0.8c-0.41,0-0.82,0.05-1.24,0.14c-0.42,0.09-0.92,0.25-1.51,0.48v10.07
		l0.43,0.43l1.35,0.15v1.38h-7.31v-1.38l1.35-0.15l0.43-0.43v-7.52c0-2.11-0.88-3.16-2.63-3.16c-0.41,0-0.81,0.04-1.19,0.12
		c-0.39,0.08-0.88,0.22-1.47,0.43v10.13l0.43,0.43l1.35,0.15v1.38h-7.53V89.91z"/>
	<path class="st0" d="M152.63,89.78c-1.02,0.65-1.96,1.1-2.82,1.37c-0.86,0.27-1.77,0.41-2.75,0.41c-1.16,0-2.21-0.18-3.15-0.54
		c-0.94-0.36-1.87-0.92-2.78-1.7c-1.08,0.78-2.08,1.34-3,1.7s-1.83,0.54-2.72,0.54c-1.22,0-2.19-0.36-2.91-1.09
		c-0.71-0.72-1.07-1.71-1.07-2.95c0-0.98,0.24-1.8,0.73-2.46c0.49-0.66,1.27-1.21,2.36-1.64c0.37-0.14,0.72-0.28,1.06-0.41
		c0.34-0.13,0.72-0.26,1.15-0.38c0.43-0.12,0.92-0.25,1.48-0.4c0.56-0.14,1.23-0.31,2-0.49v-0.92c0-1.1-0.22-1.9-0.65-2.4
		s-1.14-0.75-2.11-0.75c-0.22,0-0.42,0.01-0.61,0.03c-0.18,0.02-0.42,0.06-0.7,0.12v2.88h-2.74c-0.86,0-1.3-0.36-1.3-1.07
		c0-0.51,0.16-0.98,0.49-1.42c0.33-0.44,0.77-0.82,1.35-1.15c0.57-0.33,1.24-0.58,2-0.77c0.77-0.18,1.6-0.28,2.49-0.28
		c1.04,0,1.91,0.13,2.6,0.4c0.69,0.27,1.31,0.69,1.84,1.29c0.63-0.59,1.29-1.02,1.96-1.29c0.67-0.26,1.43-0.4,2.26-0.4
		c1.73,0,3.1,0.59,4.09,1.77c0.99,1.18,1.48,2.82,1.48,4.9c0,0.1,0,0.22,0,0.37c0,0.14-0.01,0.32-0.03,0.52h-8.81v3.72
		c0.77,0.68,1.5,1.16,2.19,1.45c0.68,0.29,1.45,0.43,2.31,0.43c0.75,0,1.45-0.12,2.08-0.37c0.63-0.25,1.38-0.67,2.23-1.28V89.78z
		 M140.21,83.33c-0.96,0.24-1.75,0.49-2.37,0.73c-0.62,0.25-1.12,0.51-1.48,0.78c-0.37,0.28-0.63,0.58-0.78,0.92
		c-0.15,0.34-0.23,0.73-0.23,1.18c0,0.67,0.19,1.22,0.57,1.64c0.38,0.42,0.87,0.63,1.48,0.63c0.41,0,0.82-0.06,1.22-0.18
		c0.41-0.12,0.94-0.36,1.59-0.7V83.33z M148.74,81.99c0.02-0.16,0.03-0.3,0.03-0.41c0-0.11,0-0.2,0-0.26c0-1.16-0.21-2.06-0.63-2.69
		c-0.42-0.63-1.01-0.95-1.76-0.95c-0.86,0-1.49,0.35-1.9,1.04c-0.41,0.69-0.63,1.79-0.67,3.27H148.74z"/>
	<path class="st0" d="M164.41,90.46c-1.06,0.37-1.93,0.62-2.62,0.76c-0.68,0.14-1.37,0.21-2.07,0.21c-0.71,0-1.35-0.12-1.91-0.35
		c-0.56-0.23-0.98-0.57-1.27-0.99c-0.16-0.26-0.28-0.57-0.34-0.9c-0.06-0.34-0.09-0.89-0.09-1.67v-8.91h-1.99v-1.16l2.26-1.28
		l1.59-3.18h1.9v3.79h4.53v1.84h-4.53v7.62c0,0.57,0.04,1.05,0.12,1.42c0.08,0.38,0.22,0.68,0.41,0.92c0.19,0.23,0.46,0.4,0.8,0.49
		c0.34,0.09,0.75,0.14,1.24,0.14c0.73,0,1.39-0.07,1.96-0.21V90.46z"/>
	<path class="st0" d="M165.36,89.91l1.65-0.15l0.43-0.43V78.77h-2.02v-1.22l4.31-1.44h1.47v13.22l0.46,0.43l1.74,0.15v1.38h-8.05
		V89.91z M169.46,69.16c0.65,0,1.19,0.21,1.62,0.63c0.43,0.42,0.64,0.95,0.64,1.61c0,0.65-0.21,1.2-0.64,1.64
		c-0.43,0.44-0.97,0.66-1.62,0.66c-0.65,0-1.19-0.21-1.62-0.64c-0.43-0.43-0.64-0.97-0.64-1.62c0-0.65,0.21-1.19,0.64-1.62
		C168.27,69.38,168.81,69.16,169.46,69.16z"/>
</g>
</svg>
