<!-- Generator: Adobe Illustrator 25.2.0, SVG Export Plug-In  -->
<svg version="1.1" xmlns="http://www.w3.org/2000/svg" xmlns:xlink="http://www.w3.org/1999/xlink" x="0px" y="0px" width="86.65px"
	 height="65.77px" viewBox="0 0 86.65 65.77" style="overflow:visible;enable-background:new 0 0 86.65 65.77;"
	 xml:space="preserve">
<style type="text/css">
	.st0{clip-path:url(#SVGID_2_);}
	.st1{fill:#2B2E34;}
	.st2{fill:#FB6798;}
	.st3{fill:#FFB17F;}
	.st4{fill:#FF923D;}
	.st5{fill:#FF6F2A;}
	.st6{fill:#E12C17;}
	.st7{fill:#FF5125;}
	.st8{fill:#FF872C;}
	.st9{fill:#FE451F;}
	.st10{fill:#FF5D1E;}
	.st11{fill:#FC3919;}
	.st12{fill:#ED4F1E;}
	.st13{fill:#EB351A;}
	.st14{clip-path:url(#SVGID_4_);}
</style>
<defs>
</defs>
<g>
	<g>
		<defs>
			<rect id="SVGID_1_" width="86.65" height="65.77"/>
		</defs>
		<clipPath id="SVGID_2_">
			<use xlink:href="#SVGID_1_"  style="overflow:visible;"/>
		</clipPath>
		<g id="Group_12_1_" class="st0">
			<g id="Group_9_1_" transform="translate(49.95 42.946)">
				<path id="Path_3_1_" class="st1" d="M8.72,0.49C5.93,0.94,4.51,3,4.51,6.63c0,3.65,1.9,6.09,4.81,6.09
					c1.36,0,2.59-0.45,5.17-1.72v2.95c-2.29,1.22-4.84,1.86-7.44,1.86c-2.29,0.16-4.54-0.69-6.17-2.31
					c-1.58-1.61-2.45-3.79-2.39-6.05C-1.51,2.23,2.35-1.3,8-1.3c3.75,0,6.33,1.71,6.33,4.23c0.01,1.5-1.19,2.73-2.7,2.75
					c-0.09,0-0.19,0-0.28-0.01c-0.93-0.01-1.84-0.29-2.63-0.8V0.49z"/>
			</g>
			<g id="Group_10_1_" transform="translate(21.137 42.946)">
				<path id="Path_4_1_" class="st1" d="M23.77,7.46c2.5-3.15,3.38-4.42,3.38-5.97c0-1.54-1.25-2.78-2.78-2.78
					c-0.02,0-0.05,0-0.07,0c-0.88,0-1.73,0.35-2.35,0.97V6.1l-4.1,5.46V-0.89h-3.89L7.48,9.84V-0.89H5.24l-5.88,1.43v1.5l3.21,0.33
					v13.16h4.14l6.21-10.21v10.21h4.54L23.77,7.46z"/>
			</g>
			<g id="Group_11_1_" transform="translate(0 42.988)">
				<path id="Path_5_1_" class="st1" d="M8.12,13.46c0.44,0.02,0.63,0.02,0.91,0.02c3.34,0,5.13-2.08,5.13-6.07
					c0-3.38-1.46-5.17-4.17-5.17C9.37,2.26,8.74,2.32,8.12,2.41L8.12,13.46z M8.12,20.66l2.69,0.6v1.52H0.27v-1.52l2.4-0.6V2.24H0
					V0.66L6.45-1.3h1.67v2.2c3.02-1.8,4.06-2.12,5.61-2.12c3.58,0,6.22,3.3,6.22,7.87c0,5.28-3.52,8.84-9.08,8.84
					c-0.92,0-1.84-0.06-2.75-0.16L8.12,20.66z"/>
			</g>
		</g>
	</g>
	<path id="Path_7_1_" class="st2" d="M82.56,28.24h4.09v-8.07h-4.09V28.24z M82.56,20.17l-27.42,8.07l0,0l0,0L82.56,20.17z"/>
	<path id="Path_8_1_" class="st3" d="M74.39,3.15h-3.17v4.91h3.17V3.15z"/>
	<path id="Path_9_1_" class="st4" d="M55.13,3.15h16.1V0h-16.1V3.15z"/>
	<g id="Group_13_1_" transform="translate(56.85 3.25)">
		<path id="Path_10_1_" class="st5" d="M14.37-0.1h-16.1v4.91h16.1V-0.1z"/>
	</g>
	<path id="Path_11_1_" class="st6" d="M82.55,8.06h-8.16v12.11h8.16V8.06z"/>
	<path id="Path_12_1_" class="st7" d="M82.55,20.17h-8.16v8.07h8.16V20.17z"/>
	<path id="Path_13_1_" class="st8" d="M74.39,8.06h-3.17v12.11h3.17V8.06z"/>
	<path id="Path_14_1_" class="st9" d="M74.39,20.17h-3.17v8.07h3.17V20.17z"/>
	<g id="Group_14_1_" transform="translate(56.85 8.315)">
		<path id="Path_15_1_" class="st10" d="M14.37-0.25h-16.1v8.07H8.34v4.04h6.03L14.37-0.25z"/>
	</g>
	<g id="Group_15_1_" transform="translate(56.85 20.801)">
		<path id="Path_16_1_" class="st11" d="M14.37-0.63H8.35v8.07H-1.72l0,0h16.1L14.37-0.63z"/>
	</g>
	<path id="Path_17_1_" class="st12" d="M65.2,16.13H55.13v4.04H65.2V16.13z"/>
	<path id="Path_18_1_" class="st13" d="M65.2,20.17H55.13v8.07H65.2V20.17z"/>
	<path id="Path_19_1_" class="st6" d="M38.99,28.24h16.14v4.03H38.99V28.24z"/>
</g>
</svg>
